<svg width="1361" height="1121" viewBox="0 0 1361 1121" fill="none" xmlns="http://www.w3.org/2000/svg">
<g opacity="0.2" filter="url(#filter0_f_175_188)">
<ellipse cx="690.5" cy="370" rx="670.5" ry="350" fill="#1EA35F"/>
</g>
<g opacity="0.6">
<path d="M1097.93 306C1099.36 306 1100.44 306.605 1101.17 307.815C1101.92 309.011 1102.29 310.753 1102.29 313.04C1102.29 315.327 1101.92 317.075 1101.17 318.285C1100.44 319.495 1099.36 320.1 1097.93 320.1C1096.52 320.1 1095.44 319.495 1094.69 318.285C1093.94 317.075 1093.57 315.327 1093.57 313.04C1093.57 310.767 1093.94 309.025 1094.69 307.815C1095.44 306.605 1096.52 306 1097.93 306ZM1094.99 313.04C1094.99 314.662 1095.14 315.932 1095.43 316.849L1099.87 308.014C1099.4 307.389 1098.76 307.077 1097.93 307.077C1097.01 307.077 1096.29 307.569 1095.77 308.553C1095.25 309.523 1094.99 311.019 1094.99 313.04ZM1097.93 319.003C1098.86 319.003 1099.59 318.518 1100.11 317.547C1100.63 316.564 1100.89 315.061 1100.89 313.04C1100.89 311.325 1100.72 309.995 1100.39 309.051L1095.95 317.966C1096.43 318.658 1097.09 319.003 1097.93 319.003Z" fill="url(#paint0_linear_175_188)"/>
<path d="M1099.13 341.637H1102.07V342.694H1094.45V341.637H1097.85V330.428L1094.61 332.363L1094.05 331.465L1098.05 328.992H1099.13V341.637Z" fill="url(#paint1_linear_175_188)"/>
<path d="M1097.93 351.586C1099.36 351.586 1100.44 352.191 1101.17 353.4C1101.92 354.597 1102.29 356.339 1102.29 358.626C1102.29 360.913 1101.92 362.661 1101.17 363.871C1100.44 365.081 1099.36 365.686 1097.93 365.686C1096.52 365.686 1095.44 365.081 1094.69 363.871C1093.94 362.661 1093.57 360.913 1093.57 358.626C1093.57 356.352 1093.94 354.61 1094.69 353.4C1095.44 352.191 1096.52 351.586 1097.93 351.586ZM1094.99 358.626C1094.99 360.248 1095.14 361.518 1095.43 362.435L1099.87 353.6C1099.4 352.975 1098.76 352.663 1097.93 352.663C1097.01 352.663 1096.29 353.155 1095.77 354.138C1095.25 355.109 1094.99 356.605 1094.99 358.626ZM1097.93 364.589C1098.86 364.589 1099.59 364.104 1100.11 363.133C1100.63 362.149 1100.89 360.647 1100.89 358.626C1100.89 356.911 1100.72 355.581 1100.39 354.637L1095.95 363.552C1096.43 364.243 1097.09 364.589 1097.93 364.589Z" fill="url(#paint2_linear_175_188)"/>
<path d="M1099.13 387.222H1102.07V388.279H1094.45V387.222H1097.85V376.014L1094.61 377.948L1094.05 377.051L1098.05 374.578H1099.13V387.222Z" fill="url(#paint3_linear_175_188)"/>
<path d="M1099.13 410.015H1102.07V411.072H1094.45V410.015H1097.85V398.807L1094.61 400.741L1094.05 399.844L1098.05 397.371H1099.13V410.015Z" fill="url(#paint4_linear_175_188)"/>
<path d="M1097.93 419.964C1099.36 419.964 1100.44 420.569 1101.17 421.779C1101.92 422.976 1102.29 424.717 1102.29 427.004C1102.29 429.291 1101.92 431.039 1101.17 432.249C1100.44 433.459 1099.36 434.064 1097.93 434.064C1096.52 434.064 1095.44 433.459 1094.69 432.249C1093.94 431.039 1093.57 429.291 1093.57 427.004C1093.57 424.731 1093.94 422.989 1094.69 421.779C1095.44 420.569 1096.52 419.964 1097.93 419.964ZM1094.99 427.004C1094.99 428.626 1095.14 429.896 1095.43 430.813L1099.87 421.978C1099.4 421.353 1098.76 421.041 1097.93 421.041C1097.01 421.041 1096.29 421.533 1095.77 422.517C1095.25 423.487 1094.99 424.983 1094.99 427.004ZM1097.93 432.967C1098.86 432.967 1099.59 432.482 1100.11 431.511C1100.63 430.528 1100.89 429.025 1100.89 427.004C1100.89 425.289 1100.72 423.959 1100.39 423.015L1095.95 431.93C1096.43 432.622 1097.09 432.967 1097.93 432.967Z" fill="url(#paint5_linear_175_188)"/>
<path d="M1099.13 455.601H1102.07V456.658H1094.45V455.601H1097.85V444.392L1094.61 446.327L1094.05 445.429L1098.05 442.956H1099.13V455.601Z" fill="url(#paint6_linear_175_188)"/>
<path d="M1097.93 465.55C1099.36 465.55 1100.44 466.155 1101.17 467.365C1101.92 468.561 1102.29 470.303 1102.29 472.59C1102.29 474.877 1101.92 476.625 1101.17 477.835C1100.44 479.045 1099.36 479.65 1097.93 479.65C1096.52 479.65 1095.44 479.045 1094.69 477.835C1093.94 476.625 1093.57 474.877 1093.57 472.59C1093.57 470.316 1093.94 468.574 1094.69 467.365C1095.44 466.155 1096.52 465.55 1097.93 465.55ZM1094.99 472.59C1094.99 474.212 1095.14 475.482 1095.43 476.399L1099.87 467.564C1099.4 466.939 1098.76 466.627 1097.93 466.627C1097.01 466.627 1096.29 467.119 1095.77 468.102C1095.25 469.073 1094.99 470.569 1094.99 472.59ZM1097.93 478.553C1098.86 478.553 1099.59 478.068 1100.11 477.097C1100.63 476.113 1100.89 474.611 1100.89 472.59C1100.89 470.875 1100.72 469.545 1100.39 468.601L1095.95 477.516C1096.43 478.207 1097.09 478.553 1097.93 478.553Z" fill="url(#paint7_linear_175_188)"/>
<path d="M1097.93 488.342C1099.36 488.342 1100.44 488.947 1101.17 490.157C1101.92 491.354 1102.29 493.096 1102.29 495.383C1102.29 497.669 1101.92 499.418 1101.17 500.628C1100.44 501.838 1099.36 502.443 1097.93 502.443C1096.52 502.443 1095.44 501.838 1094.69 500.628C1093.94 499.418 1093.57 497.669 1093.57 495.383C1093.57 493.109 1093.94 491.367 1094.69 490.157C1095.44 488.947 1096.52 488.342 1097.93 488.342ZM1094.99 495.383C1094.99 497.005 1095.14 498.274 1095.43 499.192L1099.87 490.357C1099.4 489.732 1098.76 489.419 1097.93 489.419C1097.01 489.419 1096.29 489.911 1095.77 490.895C1095.25 491.866 1094.99 493.362 1094.99 495.383ZM1097.93 501.346C1098.86 501.346 1099.59 500.86 1100.11 499.89C1100.63 498.906 1100.89 497.404 1100.89 495.383C1100.89 493.667 1100.72 492.338 1100.39 491.394L1095.95 500.309C1096.43 501 1097.09 501.346 1097.93 501.346Z" fill="url(#paint8_linear_175_188)"/>
<path d="M1099.13 523.979H1102.07V525.036H1094.45V523.979H1097.85V512.771L1094.61 514.705L1094.05 513.808L1098.05 511.335H1099.13V523.979Z" fill="url(#paint9_linear_175_188)"/>
<path d="M1097.93 533.928C1099.36 533.928 1100.44 534.533 1101.17 535.743C1101.92 536.94 1102.29 538.681 1102.29 540.968C1102.29 543.255 1101.92 545.003 1101.17 546.213C1100.44 547.423 1099.36 548.028 1097.93 548.028C1096.52 548.028 1095.44 547.423 1094.69 546.213C1093.94 545.003 1093.57 543.255 1093.57 540.968C1093.57 538.695 1093.94 536.953 1094.69 535.743C1095.44 534.533 1096.52 533.928 1097.93 533.928ZM1094.99 540.968C1094.99 542.59 1095.14 543.86 1095.43 544.777L1099.87 535.942C1099.4 535.317 1098.76 535.005 1097.93 535.005C1097.01 535.005 1096.29 535.497 1095.77 536.481C1095.25 537.451 1094.99 538.947 1094.99 540.968ZM1097.93 546.931C1098.86 546.931 1099.59 546.446 1100.11 545.475C1100.63 544.492 1100.89 542.989 1100.89 540.968C1100.89 539.253 1100.72 537.923 1100.39 536.979L1095.95 545.894C1096.43 546.586 1097.09 546.931 1097.93 546.931Z" fill="url(#paint10_linear_175_188)"/>
<path d="M1099.13 569.565H1102.07V570.622H1094.45V569.565H1097.85V558.356L1094.61 560.291L1094.05 559.393L1098.05 556.92H1099.13V569.565Z" fill="url(#paint11_linear_175_188)"/>
<path d="M1099.13 592.357H1102.07V593.414H1094.45V592.357H1097.85V581.149L1094.61 583.084L1094.05 582.186L1098.05 579.713H1099.13V592.357Z" fill="url(#paint12_linear_175_188)"/>
<path d="M1135.07 351.586C1136.5 351.586 1137.58 352.191 1138.31 353.4C1139.06 354.597 1139.43 356.339 1139.43 358.626C1139.43 360.913 1139.06 362.661 1138.31 363.871C1137.58 365.081 1136.5 365.686 1135.07 365.686C1133.66 365.686 1132.58 365.081 1131.83 363.871C1131.08 362.661 1130.71 360.913 1130.71 358.626C1130.71 356.352 1131.08 354.61 1131.83 353.4C1132.58 352.191 1133.66 351.586 1135.07 351.586ZM1132.13 358.626C1132.13 360.248 1132.28 361.518 1132.57 362.435L1137.01 353.6C1136.54 352.975 1135.9 352.663 1135.07 352.663C1134.15 352.663 1133.43 353.155 1132.91 354.138C1132.39 355.109 1132.13 356.605 1132.13 358.626ZM1135.07 364.589C1136 364.589 1136.73 364.104 1137.25 363.133C1137.77 362.149 1138.03 360.647 1138.03 358.626C1138.03 356.911 1137.86 355.581 1137.53 354.637L1133.09 363.552C1133.57 364.243 1134.23 364.589 1135.07 364.589Z" fill="url(#paint13_linear_175_188)"/>
<path d="M1136.27 387.222H1139.21V388.279H1131.59V387.222H1134.99V376.014L1131.75 377.948L1131.19 377.051L1135.19 374.578H1136.27V387.222Z" fill="url(#paint14_linear_175_188)"/>
<path d="M1135.07 397.171C1136.5 397.171 1137.58 397.776 1138.31 398.986C1139.06 400.183 1139.43 401.924 1139.43 404.211C1139.43 406.498 1139.06 408.247 1138.31 409.457C1137.58 410.666 1136.5 411.271 1135.07 411.271C1133.66 411.271 1132.58 410.666 1131.83 409.457C1131.08 408.247 1130.71 406.498 1130.71 404.211C1130.71 401.938 1131.08 400.196 1131.83 398.986C1132.58 397.776 1133.66 397.171 1135.07 397.171ZM1132.13 404.211C1132.13 405.833 1132.28 407.103 1132.57 408.021L1137.01 399.186C1136.54 398.561 1135.9 398.248 1135.07 398.248C1134.15 398.248 1133.43 398.74 1132.91 399.724C1132.39 400.695 1132.13 402.19 1132.13 404.211ZM1135.07 410.174C1136 410.174 1136.73 409.689 1137.25 408.719C1137.77 407.735 1138.03 406.232 1138.03 404.211C1138.03 402.496 1137.86 401.167 1137.53 400.223L1133.09 409.137C1133.57 409.829 1134.23 410.174 1135.07 410.174Z" fill="url(#paint15_linear_175_188)"/>
<path d="M1135.07 419.964C1136.5 419.964 1137.58 420.569 1138.31 421.779C1139.06 422.976 1139.43 424.717 1139.43 427.004C1139.43 429.291 1139.06 431.039 1138.31 432.249C1137.58 433.459 1136.5 434.064 1135.07 434.064C1133.66 434.064 1132.58 433.459 1131.83 432.249C1131.08 431.039 1130.71 429.291 1130.71 427.004C1130.71 424.731 1131.08 422.989 1131.83 421.779C1132.58 420.569 1133.66 419.964 1135.07 419.964ZM1132.13 427.004C1132.13 428.626 1132.28 429.896 1132.57 430.813L1137.01 421.978C1136.54 421.353 1135.9 421.041 1135.07 421.041C1134.15 421.041 1133.43 421.533 1132.91 422.517C1132.39 423.487 1132.13 424.983 1132.13 427.004ZM1135.07 432.967C1136 432.967 1136.73 432.482 1137.25 431.511C1137.77 430.528 1138.03 429.025 1138.03 427.004C1138.03 425.289 1137.86 423.959 1137.53 423.015L1133.09 431.93C1133.57 432.622 1134.23 432.967 1135.07 432.967Z" fill="url(#paint16_linear_175_188)"/>
<path d="M1136.27 455.601H1139.21V456.658H1131.59V455.601H1134.99V444.392L1131.75 446.327L1131.19 445.429L1135.19 442.956H1136.27V455.601Z" fill="url(#paint17_linear_175_188)"/>
<path d="M1135.07 465.55C1136.5 465.55 1137.58 466.155 1138.31 467.365C1139.06 468.561 1139.43 470.303 1139.43 472.59C1139.43 474.877 1139.06 476.625 1138.31 477.835C1137.58 479.045 1136.5 479.65 1135.07 479.65C1133.66 479.65 1132.58 479.045 1131.83 477.835C1131.08 476.625 1130.71 474.877 1130.71 472.59C1130.71 470.316 1131.08 468.574 1131.83 467.365C1132.58 466.155 1133.66 465.55 1135.07 465.55ZM1132.13 472.59C1132.13 474.212 1132.28 475.482 1132.57 476.399L1137.01 467.564C1136.54 466.939 1135.9 466.627 1135.07 466.627C1134.15 466.627 1133.43 467.119 1132.91 468.102C1132.39 469.073 1132.13 470.569 1132.13 472.59ZM1135.07 478.553C1136 478.553 1136.73 478.068 1137.25 477.097C1137.77 476.113 1138.03 474.611 1138.03 472.59C1138.03 470.875 1137.86 469.545 1137.53 468.601L1133.09 477.516C1133.57 478.207 1134.23 478.553 1135.07 478.553Z" fill="url(#paint18_linear_175_188)"/>
<path d="M1136.27 501.186H1139.21V502.243H1131.59V501.186H1134.99V489.978L1131.75 491.912L1131.19 491.015L1135.19 488.542H1136.27V501.186Z" fill="url(#paint19_linear_175_188)"/>
<path d="M1135.07 511.135C1136.5 511.135 1137.58 511.74 1138.31 512.95C1139.06 514.147 1139.43 515.888 1139.43 518.175C1139.43 520.462 1139.06 522.211 1138.31 523.421C1137.58 524.63 1136.5 525.235 1135.07 525.235C1133.66 525.235 1132.58 524.63 1131.83 523.421C1131.08 522.211 1130.71 520.462 1130.71 518.175C1130.71 515.902 1131.08 514.16 1131.83 512.95C1132.58 511.74 1133.66 511.135 1135.07 511.135ZM1132.13 518.175C1132.13 519.797 1132.28 521.067 1132.57 521.985L1137.01 513.15C1136.54 512.525 1135.9 512.212 1135.07 512.212C1134.15 512.212 1133.43 512.704 1132.91 513.688C1132.39 514.659 1132.13 516.154 1132.13 518.175ZM1135.07 524.139C1136 524.139 1136.73 523.653 1137.25 522.683C1137.77 521.699 1138.03 520.196 1138.03 518.175C1138.03 516.46 1137.86 515.131 1137.53 514.187L1133.09 523.101C1133.57 523.793 1134.23 524.139 1135.07 524.139Z" fill="url(#paint20_linear_175_188)"/>
<path d="M1135.07 533.928C1136.5 533.928 1137.58 534.533 1138.31 535.743C1139.06 536.94 1139.43 538.681 1139.43 540.968C1139.43 543.255 1139.06 545.003 1138.31 546.213C1137.58 547.423 1136.5 548.028 1135.07 548.028C1133.66 548.028 1132.58 547.423 1131.83 546.213C1131.08 545.003 1130.71 543.255 1130.71 540.968C1130.71 538.695 1131.08 536.953 1131.83 535.743C1132.58 534.533 1133.66 533.928 1135.07 533.928ZM1132.13 540.968C1132.13 542.59 1132.28 543.86 1132.57 544.777L1137.01 535.942C1136.54 535.317 1135.9 535.005 1135.07 535.005C1134.15 535.005 1133.43 535.497 1132.91 536.481C1132.39 537.451 1132.13 538.947 1132.13 540.968ZM1135.07 546.931C1136 546.931 1136.73 546.446 1137.25 545.475C1137.77 544.492 1138.03 542.989 1138.03 540.968C1138.03 539.253 1137.86 537.923 1137.53 536.979L1133.09 545.894C1133.57 546.586 1134.23 546.931 1135.07 546.931Z" fill="url(#paint21_linear_175_188)"/>
<path d="M1136.27 569.565H1139.21V570.622H1131.59V569.565H1134.99V558.356L1131.75 560.291L1131.19 559.393L1135.19 556.92H1136.27V569.565Z" fill="url(#paint22_linear_175_188)"/>
<path d="M1135.07 579.514C1136.5 579.514 1137.58 580.119 1138.31 581.329C1139.06 582.525 1139.43 584.267 1139.43 586.554C1139.43 588.841 1139.06 590.589 1138.31 591.799C1137.58 593.009 1136.5 593.614 1135.07 593.614C1133.66 593.614 1132.58 593.009 1131.83 591.799C1131.08 590.589 1130.71 588.841 1130.71 586.554C1130.71 584.28 1131.08 582.538 1131.83 581.329C1132.58 580.119 1133.66 579.514 1135.07 579.514ZM1132.13 586.554C1132.13 588.176 1132.28 589.446 1132.57 590.363L1137.01 581.528C1136.54 580.903 1135.9 580.591 1135.07 580.591C1134.15 580.591 1133.43 581.083 1132.91 582.066C1132.39 583.037 1132.13 584.533 1132.13 586.554ZM1135.07 592.517C1136 592.517 1136.73 592.032 1137.25 591.061C1137.77 590.077 1138.03 588.575 1138.03 586.554C1138.03 584.839 1137.86 583.509 1137.53 582.565L1133.09 591.48C1133.57 592.171 1134.23 592.517 1135.07 592.517Z" fill="url(#paint23_linear_175_188)"/>
<path d="M1136.27 615.15H1139.21V616.207H1131.59V615.15H1134.99V603.942L1131.75 605.876L1131.19 604.979L1135.19 602.506H1136.27V615.15Z" fill="url(#paint24_linear_175_188)"/>
<path d="M1136.27 637.943H1139.21V639H1131.59V637.943H1134.99V626.735L1131.75 628.669L1131.19 627.772L1135.19 625.299H1136.27V637.943Z" fill="url(#paint25_linear_175_188)"/>
<path d="M1079.36 374.378C1080.79 374.378 1081.87 374.983 1082.6 376.193C1083.35 377.39 1083.72 379.132 1083.72 381.419C1083.72 383.705 1083.35 385.454 1082.6 386.664C1081.87 387.874 1080.79 388.479 1079.36 388.479C1077.95 388.479 1076.87 387.874 1076.12 386.664C1075.37 385.454 1075 383.705 1075 381.419C1075 379.145 1075.37 377.403 1076.12 376.193C1076.87 374.983 1077.95 374.378 1079.36 374.378ZM1076.42 381.419C1076.42 383.041 1076.57 384.31 1076.86 385.228L1081.3 376.393C1080.83 375.768 1080.19 375.455 1079.36 375.455C1078.44 375.455 1077.72 375.947 1077.2 376.931C1076.68 377.902 1076.42 379.398 1076.42 381.419ZM1079.36 387.382C1080.29 387.382 1081.02 386.896 1081.54 385.926C1082.06 384.942 1082.32 383.439 1082.32 381.419C1082.32 379.703 1082.15 378.374 1081.82 377.43L1077.38 386.345C1077.86 387.036 1078.52 387.382 1079.36 387.382Z" fill="url(#paint26_linear_175_188)"/>
<path d="M1079.36 397.171C1080.79 397.171 1081.87 397.776 1082.6 398.986C1083.35 400.183 1083.72 401.924 1083.72 404.211C1083.72 406.498 1083.35 408.247 1082.6 409.457C1081.87 410.666 1080.79 411.271 1079.36 411.271C1077.95 411.271 1076.87 410.666 1076.12 409.457C1075.37 408.247 1075 406.498 1075 404.211C1075 401.938 1075.37 400.196 1076.12 398.986C1076.87 397.776 1077.95 397.171 1079.36 397.171ZM1076.42 404.211C1076.42 405.833 1076.57 407.103 1076.86 408.021L1081.3 399.186C1080.83 398.561 1080.19 398.248 1079.36 398.248C1078.44 398.248 1077.72 398.74 1077.2 399.724C1076.68 400.695 1076.42 402.19 1076.42 404.211ZM1079.36 410.174C1080.29 410.174 1081.02 409.689 1081.54 408.719C1082.06 407.735 1082.32 406.232 1082.32 404.211C1082.32 402.496 1082.15 401.167 1081.82 400.223L1077.38 409.137C1077.86 409.829 1078.52 410.174 1079.36 410.174Z" fill="url(#paint27_linear_175_188)"/>
<path d="M1080.56 432.808H1083.5V433.865H1075.88V432.808H1079.28V421.599L1076.04 423.534L1075.48 422.636L1079.48 420.163H1080.56V432.808Z" fill="url(#paint28_linear_175_188)"/>
<path d="M1079.36 442.757C1080.79 442.757 1081.87 443.362 1082.6 444.572C1083.35 445.768 1083.72 447.51 1083.72 449.797C1083.72 452.084 1083.35 453.832 1082.6 455.042C1081.87 456.252 1080.79 456.857 1079.36 456.857C1077.95 456.857 1076.87 456.252 1076.12 455.042C1075.37 453.832 1075 452.084 1075 449.797C1075 447.523 1075.37 445.782 1076.12 444.572C1076.87 443.362 1077.95 442.757 1079.36 442.757ZM1076.42 449.797C1076.42 451.419 1076.57 452.689 1076.86 453.606L1081.3 444.771C1080.83 444.146 1080.19 443.834 1079.36 443.834C1078.44 443.834 1077.72 444.326 1077.2 445.31C1076.68 446.28 1076.42 447.776 1076.42 449.797ZM1079.36 455.76C1080.29 455.76 1081.02 455.275 1081.54 454.304C1082.06 453.32 1082.32 451.818 1082.32 449.797C1082.32 448.082 1082.15 446.752 1081.82 445.808L1077.38 454.723C1077.86 455.414 1078.52 455.76 1079.36 455.76Z" fill="url(#paint29_linear_175_188)"/>
<path d="M1080.56 478.393H1083.5V479.45H1075.88V478.393H1079.28V467.185L1076.04 469.12L1075.48 468.222L1079.48 465.749H1080.56V478.393Z" fill="url(#paint30_linear_175_188)"/>
<path d="M1080.56 501.186H1083.5V502.243H1075.88V501.186H1079.28V489.978L1076.04 491.912L1075.48 491.015L1079.48 488.542H1080.56V501.186Z" fill="url(#paint31_linear_175_188)"/>
<path d="M1117.7 341.637H1120.64V342.694H1113.02V341.637H1116.42V330.428L1113.18 332.363L1112.62 331.465L1116.62 328.992H1117.7V341.637Z" fill="url(#paint32_linear_175_188)"/>
<path d="M1116.5 351.586C1117.93 351.586 1119.01 352.191 1119.74 353.4C1120.49 354.597 1120.86 356.339 1120.86 358.626C1120.86 360.913 1120.49 362.661 1119.74 363.871C1119.01 365.081 1117.93 365.686 1116.5 365.686C1115.09 365.686 1114.01 365.081 1113.26 363.871C1112.51 362.661 1112.14 360.913 1112.14 358.626C1112.14 356.352 1112.51 354.61 1113.26 353.4C1114.01 352.191 1115.09 351.586 1116.5 351.586ZM1113.56 358.626C1113.56 360.248 1113.71 361.518 1114 362.435L1118.44 353.6C1117.97 352.975 1117.33 352.663 1116.5 352.663C1115.58 352.663 1114.86 353.155 1114.34 354.138C1113.82 355.109 1113.56 356.605 1113.56 358.626ZM1116.5 364.589C1117.43 364.589 1118.16 364.104 1118.68 363.133C1119.2 362.149 1119.46 360.647 1119.46 358.626C1119.46 356.911 1119.29 355.581 1118.96 354.637L1114.52 363.552C1115 364.243 1115.66 364.589 1116.5 364.589Z" fill="url(#paint33_linear_175_188)"/>
<path d="M1117.7 387.222H1120.64V388.279H1113.02V387.222H1116.42V376.014L1113.18 377.948L1112.62 377.051L1116.62 374.578H1117.7V387.222Z" fill="url(#paint34_linear_175_188)"/>
<path d="M1117.7 410.015H1120.64V411.072H1113.02V410.015H1116.42V398.807L1113.18 400.741L1112.62 399.844L1116.62 397.371H1117.7V410.015Z" fill="url(#paint35_linear_175_188)"/>
<path d="M1116.5 419.964C1117.93 419.964 1119.01 420.569 1119.74 421.779C1120.49 422.976 1120.86 424.717 1120.86 427.004C1120.86 429.291 1120.49 431.039 1119.74 432.249C1119.01 433.459 1117.93 434.064 1116.5 434.064C1115.09 434.064 1114.01 433.459 1113.26 432.249C1112.51 431.039 1112.14 429.291 1112.14 427.004C1112.14 424.731 1112.51 422.989 1113.26 421.779C1114.01 420.569 1115.09 419.964 1116.5 419.964ZM1113.56 427.004C1113.56 428.626 1113.71 429.896 1114 430.813L1118.44 421.978C1117.97 421.353 1117.33 421.041 1116.5 421.041C1115.58 421.041 1114.86 421.533 1114.34 422.517C1113.82 423.487 1113.56 424.983 1113.56 427.004ZM1116.5 432.967C1117.43 432.967 1118.16 432.482 1118.68 431.511C1119.2 430.528 1119.46 429.025 1119.46 427.004C1119.46 425.289 1119.29 423.959 1118.96 423.015L1114.52 431.93C1115 432.622 1115.66 432.967 1116.5 432.967Z" fill="url(#paint36_linear_175_188)"/>
<path d="M1117.7 455.601H1120.64V456.658H1113.02V455.601H1116.42V444.392L1113.18 446.327L1112.62 445.429L1116.62 442.956H1117.7V455.601Z" fill="url(#paint37_linear_175_188)"/>
<path d="M1117.7 478.393H1120.64V479.45H1113.02V478.393H1116.42V467.185L1113.18 469.12L1112.62 468.222L1116.62 465.749H1117.7V478.393Z" fill="url(#paint38_linear_175_188)"/>
<path d="M1116.5 488.342C1117.93 488.342 1119.01 488.947 1119.74 490.157C1120.49 491.354 1120.86 493.096 1120.86 495.383C1120.86 497.669 1120.49 499.418 1119.74 500.628C1119.01 501.838 1117.93 502.443 1116.5 502.443C1115.09 502.443 1114.01 501.838 1113.26 500.628C1112.51 499.418 1112.14 497.669 1112.14 495.383C1112.14 493.109 1112.51 491.367 1113.26 490.157C1114.01 488.947 1115.09 488.342 1116.5 488.342ZM1113.56 495.383C1113.56 497.005 1113.71 498.274 1114 499.192L1118.44 490.357C1117.97 489.732 1117.33 489.419 1116.5 489.419C1115.58 489.419 1114.86 489.911 1114.34 490.895C1113.82 491.866 1113.56 493.362 1113.56 495.383ZM1116.5 501.346C1117.43 501.346 1118.16 500.86 1118.68 499.89C1119.2 498.906 1119.46 497.404 1119.46 495.383C1119.46 493.667 1119.29 492.338 1118.96 491.394L1114.52 500.309C1115 501 1115.66 501.346 1116.5 501.346Z" fill="url(#paint39_linear_175_188)"/>
<path d="M1117.7 523.979H1120.64V525.036H1113.02V523.979H1116.42V512.771L1113.18 514.705L1112.62 513.808L1116.62 511.335H1117.7V523.979Z" fill="url(#paint40_linear_175_188)"/>
<path d="M1116.5 533.928C1117.93 533.928 1119.01 534.533 1119.74 535.743C1120.49 536.94 1120.86 538.681 1120.86 540.968C1120.86 543.255 1120.49 545.003 1119.74 546.213C1119.01 547.423 1117.93 548.028 1116.5 548.028C1115.09 548.028 1114.01 547.423 1113.26 546.213C1112.51 545.003 1112.14 543.255 1112.14 540.968C1112.14 538.695 1112.51 536.953 1113.26 535.743C1114.01 534.533 1115.09 533.928 1116.5 533.928ZM1113.56 540.968C1113.56 542.59 1113.71 543.86 1114 544.777L1118.44 535.942C1117.97 535.317 1117.33 535.005 1116.5 535.005C1115.58 535.005 1114.86 535.497 1114.34 536.481C1113.82 537.451 1113.56 538.947 1113.56 540.968ZM1116.5 546.931C1117.43 546.931 1118.16 546.446 1118.68 545.475C1119.2 544.492 1119.46 542.989 1119.46 540.968C1119.46 539.253 1119.29 537.923 1118.96 536.979L1114.52 545.894C1115 546.586 1115.66 546.931 1116.5 546.931Z" fill="url(#paint41_linear_175_188)"/>
<path d="M1153.64 328.793C1155.07 328.793 1156.15 329.398 1156.88 330.608C1157.63 331.804 1158 333.546 1158 335.833C1158 338.12 1157.63 339.868 1156.88 341.078C1156.15 342.288 1155.07 342.893 1153.64 342.893C1152.23 342.893 1151.15 342.288 1150.4 341.078C1149.65 339.868 1149.28 338.12 1149.28 335.833C1149.28 333.559 1149.65 331.818 1150.4 330.608C1151.15 329.398 1152.23 328.793 1153.64 328.793ZM1150.7 335.833C1150.7 337.455 1150.85 338.725 1151.14 339.642L1155.58 330.807C1155.11 330.182 1154.47 329.87 1153.64 329.87C1152.72 329.87 1152 330.362 1151.48 331.346C1150.96 332.316 1150.7 333.812 1150.7 335.833ZM1153.64 341.796C1154.57 341.796 1155.3 341.311 1155.82 340.34C1156.34 339.356 1156.6 337.854 1156.6 335.833C1156.6 334.118 1156.43 332.788 1156.1 331.844L1151.66 340.759C1152.14 341.45 1152.8 341.796 1153.64 341.796Z" fill="url(#paint42_linear_175_188)"/>
<path d="M1154.84 364.429H1157.78V365.486H1150.16V364.429H1153.56V353.221L1150.32 355.156L1149.76 354.258L1153.76 351.785H1154.84V364.429Z" fill="url(#paint43_linear_175_188)"/>
<path d="M1154.84 387.222H1157.78V388.279H1150.16V387.222H1153.56V376.014L1150.32 377.948L1149.76 377.051L1153.76 374.578H1154.84V387.222Z" fill="url(#paint44_linear_175_188)"/>
<path d="M1153.64 397.171C1155.07 397.171 1156.15 397.776 1156.88 398.986C1157.63 400.183 1158 401.924 1158 404.211C1158 406.498 1157.63 408.247 1156.88 409.457C1156.15 410.666 1155.07 411.271 1153.64 411.271C1152.23 411.271 1151.15 410.666 1150.4 409.457C1149.65 408.247 1149.28 406.498 1149.28 404.211C1149.28 401.938 1149.65 400.196 1150.4 398.986C1151.15 397.776 1152.23 397.171 1153.64 397.171ZM1150.7 404.211C1150.7 405.833 1150.85 407.103 1151.14 408.021L1155.58 399.186C1155.11 398.561 1154.47 398.248 1153.64 398.248C1152.72 398.248 1152 398.74 1151.48 399.724C1150.96 400.695 1150.7 402.19 1150.7 404.211ZM1153.64 410.174C1154.57 410.174 1155.3 409.689 1155.82 408.719C1156.34 407.735 1156.6 406.232 1156.6 404.211C1156.6 402.496 1156.43 401.167 1156.1 400.223L1151.66 409.137C1152.14 409.829 1152.8 410.174 1153.64 410.174Z" fill="url(#paint45_linear_175_188)"/>
<path d="M1153.64 419.964C1155.07 419.964 1156.15 420.569 1156.88 421.779C1157.63 422.976 1158 424.717 1158 427.004C1158 429.291 1157.63 431.039 1156.88 432.249C1156.15 433.459 1155.07 434.064 1153.64 434.064C1152.23 434.064 1151.15 433.459 1150.4 432.249C1149.65 431.039 1149.28 429.291 1149.28 427.004C1149.28 424.731 1149.65 422.989 1150.4 421.779C1151.15 420.569 1152.23 419.964 1153.64 419.964ZM1150.7 427.004C1150.7 428.626 1150.85 429.896 1151.14 430.813L1155.58 421.978C1155.11 421.353 1154.47 421.041 1153.64 421.041C1152.72 421.041 1152 421.533 1151.48 422.517C1150.96 423.487 1150.7 424.983 1150.7 427.004ZM1153.64 432.967C1154.57 432.967 1155.3 432.482 1155.82 431.511C1156.34 430.528 1156.6 429.025 1156.6 427.004C1156.6 425.289 1156.43 423.959 1156.1 423.015L1151.66 431.93C1152.14 432.622 1152.8 432.967 1153.64 432.967Z" fill="url(#paint46_linear_175_188)"/>
</g>
<g opacity="0.6">
<path d="M213.93 606C215.356 606 216.436 606.605 217.17 607.815C217.916 609.011 218.29 610.753 218.29 613.04C218.29 615.327 217.916 617.075 217.17 618.285C216.436 619.495 215.356 620.1 213.93 620.1C212.517 620.1 211.437 619.495 210.69 618.285C209.943 617.075 209.57 615.327 209.57 613.04C209.57 610.767 209.943 609.025 210.69 607.815C211.437 606.605 212.517 606 213.93 606ZM210.99 613.04C210.99 614.662 211.137 615.932 211.43 616.849L215.87 608.014C215.403 607.389 214.756 607.077 213.93 607.077C213.01 607.077 212.29 607.569 211.77 608.553C211.25 609.523 210.99 611.019 210.99 613.04ZM213.93 619.003C214.863 619.003 215.59 618.518 216.11 617.547C216.63 616.564 216.89 615.061 216.89 613.04C216.89 611.325 216.723 609.995 216.39 609.051L211.95 617.966C212.43 618.658 213.09 619.003 213.93 619.003Z" fill="url(#paint47_linear_175_188)"/>
<path d="M215.13 641.637H218.07V642.694H210.45V641.637H213.85V630.428L210.61 632.363L210.05 631.465L214.05 628.992H215.13V641.637Z" fill="url(#paint48_linear_175_188)"/>
<path d="M213.93 651.586C215.356 651.586 216.436 652.191 217.17 653.4C217.916 654.597 218.29 656.339 218.29 658.626C218.29 660.913 217.916 662.661 217.17 663.871C216.436 665.081 215.356 665.686 213.93 665.686C212.517 665.686 211.437 665.081 210.69 663.871C209.943 662.661 209.57 660.913 209.57 658.626C209.57 656.352 209.943 654.61 210.69 653.4C211.437 652.191 212.517 651.586 213.93 651.586ZM210.99 658.626C210.99 660.248 211.137 661.518 211.43 662.435L215.87 653.6C215.403 652.975 214.756 652.663 213.93 652.663C213.01 652.663 212.29 653.155 211.77 654.138C211.25 655.109 210.99 656.605 210.99 658.626ZM213.93 664.589C214.863 664.589 215.59 664.104 216.11 663.133C216.63 662.149 216.89 660.647 216.89 658.626C216.89 656.911 216.723 655.581 216.39 654.637L211.95 663.552C212.43 664.243 213.09 664.589 213.93 664.589Z" fill="url(#paint49_linear_175_188)"/>
<path d="M215.13 687.222H218.07V688.279H210.45V687.222H213.85V676.014L210.61 677.948L210.05 677.051L214.05 674.578H215.13V687.222Z" fill="url(#paint50_linear_175_188)"/>
<path d="M215.13 710.015H218.07V711.072H210.45V710.015H213.85V698.807L210.61 700.741L210.05 699.844L214.05 697.371H215.13V710.015Z" fill="url(#paint51_linear_175_188)"/>
<path d="M213.93 719.964C215.356 719.964 216.436 720.569 217.17 721.779C217.916 722.976 218.29 724.717 218.29 727.004C218.29 729.291 217.916 731.039 217.17 732.249C216.436 733.459 215.356 734.064 213.93 734.064C212.517 734.064 211.437 733.459 210.69 732.249C209.943 731.039 209.57 729.291 209.57 727.004C209.57 724.731 209.943 722.989 210.69 721.779C211.437 720.569 212.517 719.964 213.93 719.964ZM210.99 727.004C210.99 728.626 211.137 729.896 211.43 730.813L215.87 721.978C215.403 721.353 214.756 721.041 213.93 721.041C213.01 721.041 212.29 721.533 211.77 722.517C211.25 723.487 210.99 724.983 210.99 727.004ZM213.93 732.967C214.863 732.967 215.59 732.482 216.11 731.511C216.63 730.528 216.89 729.025 216.89 727.004C216.89 725.289 216.723 723.959 216.39 723.015L211.95 731.93C212.43 732.622 213.09 732.967 213.93 732.967Z" fill="url(#paint52_linear_175_188)"/>
<path d="M215.13 755.601H218.07V756.658H210.45V755.601H213.85V744.392L210.61 746.327L210.05 745.429L214.05 742.956H215.13V755.601Z" fill="url(#paint53_linear_175_188)"/>
<path d="M213.93 765.55C215.356 765.55 216.436 766.155 217.17 767.365C217.916 768.561 218.29 770.303 218.29 772.59C218.29 774.877 217.916 776.625 217.17 777.835C216.436 779.045 215.356 779.65 213.93 779.65C212.517 779.65 211.437 779.045 210.69 777.835C209.943 776.625 209.57 774.877 209.57 772.59C209.57 770.316 209.943 768.574 210.69 767.365C211.437 766.155 212.517 765.55 213.93 765.55ZM210.99 772.59C210.99 774.212 211.137 775.482 211.43 776.399L215.87 767.564C215.403 766.939 214.756 766.627 213.93 766.627C213.01 766.627 212.29 767.119 211.77 768.102C211.25 769.073 210.99 770.569 210.99 772.59ZM213.93 778.553C214.863 778.553 215.59 778.068 216.11 777.097C216.63 776.113 216.89 774.611 216.89 772.59C216.89 770.875 216.723 769.545 216.39 768.601L211.95 777.516C212.43 778.207 213.09 778.553 213.93 778.553Z" fill="url(#paint54_linear_175_188)"/>
<path d="M213.93 788.342C215.356 788.342 216.436 788.947 217.17 790.157C217.916 791.354 218.29 793.096 218.29 795.383C218.29 797.669 217.916 799.418 217.17 800.628C216.436 801.838 215.356 802.443 213.93 802.443C212.517 802.443 211.437 801.838 210.69 800.628C209.943 799.418 209.57 797.669 209.57 795.383C209.57 793.109 209.943 791.367 210.69 790.157C211.437 788.947 212.517 788.342 213.93 788.342ZM210.99 795.383C210.99 797.005 211.137 798.274 211.43 799.192L215.87 790.357C215.403 789.732 214.756 789.419 213.93 789.419C213.01 789.419 212.29 789.911 211.77 790.895C211.25 791.866 210.99 793.362 210.99 795.383ZM213.93 801.346C214.863 801.346 215.59 800.86 216.11 799.89C216.63 798.906 216.89 797.404 216.89 795.383C216.89 793.667 216.723 792.338 216.39 791.394L211.95 800.309C212.43 801 213.09 801.346 213.93 801.346Z" fill="url(#paint55_linear_175_188)"/>
<path d="M215.13 823.979H218.07V825.036H210.45V823.979H213.85V812.771L210.61 814.705L210.05 813.808L214.05 811.335H215.13V823.979Z" fill="url(#paint56_linear_175_188)"/>
<path d="M213.93 833.928C215.356 833.928 216.436 834.533 217.17 835.743C217.916 836.94 218.29 838.681 218.29 840.968C218.29 843.255 217.916 845.003 217.17 846.213C216.436 847.423 215.356 848.028 213.93 848.028C212.517 848.028 211.437 847.423 210.69 846.213C209.943 845.003 209.57 843.255 209.57 840.968C209.57 838.695 209.943 836.953 210.69 835.743C211.437 834.533 212.517 833.928 213.93 833.928ZM210.99 840.968C210.99 842.59 211.137 843.86 211.43 844.777L215.87 835.942C215.403 835.317 214.756 835.005 213.93 835.005C213.01 835.005 212.29 835.497 211.77 836.481C211.25 837.451 210.99 838.947 210.99 840.968ZM213.93 846.931C214.863 846.931 215.59 846.446 216.11 845.475C216.63 844.492 216.89 842.989 216.89 840.968C216.89 839.253 216.723 837.923 216.39 836.979L211.95 845.894C212.43 846.586 213.09 846.931 213.93 846.931Z" fill="url(#paint57_linear_175_188)"/>
<path d="M215.13 869.565H218.07V870.622H210.45V869.565H213.85V858.356L210.61 860.291L210.05 859.393L214.05 856.92H215.13V869.565Z" fill="url(#paint58_linear_175_188)"/>
<path d="M215.13 892.357H218.07V893.414H210.45V892.357H213.85V881.149L210.61 883.084L210.05 882.186L214.05 879.713H215.13V892.357Z" fill="url(#paint59_linear_175_188)"/>
<path d="M251.07 651.586C252.497 651.586 253.577 652.191 254.31 653.4C255.057 654.597 255.43 656.339 255.43 658.626C255.43 660.913 255.057 662.661 254.31 663.871C253.577 665.081 252.497 665.686 251.07 665.686C249.657 665.686 248.577 665.081 247.83 663.871C247.084 662.661 246.71 660.913 246.71 658.626C246.71 656.352 247.084 654.61 247.83 653.4C248.577 652.191 249.657 651.586 251.07 651.586ZM248.13 658.626C248.13 660.248 248.277 661.518 248.57 662.435L253.01 653.6C252.543 652.975 251.897 652.663 251.07 652.663C250.15 652.663 249.43 653.155 248.91 654.138C248.39 655.109 248.13 656.605 248.13 658.626ZM251.07 664.589C252.003 664.589 252.73 664.104 253.25 663.133C253.77 662.149 254.03 660.647 254.03 658.626C254.03 656.911 253.863 655.581 253.53 654.637L249.09 663.552C249.57 664.243 250.23 664.589 251.07 664.589Z" fill="url(#paint60_linear_175_188)"/>
<path d="M252.27 687.222H255.21V688.279H247.59V687.222H250.99V676.014L247.75 677.948L247.19 677.051L251.19 674.578H252.27V687.222Z" fill="url(#paint61_linear_175_188)"/>
<path d="M251.07 697.171C252.497 697.171 253.577 697.776 254.31 698.986C255.057 700.183 255.43 701.924 255.43 704.211C255.43 706.498 255.057 708.247 254.31 709.457C253.577 710.666 252.497 711.271 251.07 711.271C249.657 711.271 248.577 710.666 247.83 709.457C247.084 708.247 246.71 706.498 246.71 704.211C246.71 701.938 247.084 700.196 247.83 698.986C248.577 697.776 249.657 697.171 251.07 697.171ZM248.13 704.211C248.13 705.833 248.277 707.103 248.57 708.021L253.01 699.186C252.543 698.561 251.897 698.248 251.07 698.248C250.15 698.248 249.43 698.74 248.91 699.724C248.39 700.695 248.13 702.19 248.13 704.211ZM251.07 710.174C252.003 710.174 252.73 709.689 253.25 708.719C253.77 707.735 254.03 706.232 254.03 704.211C254.03 702.496 253.863 701.167 253.53 700.223L249.09 709.137C249.57 709.829 250.23 710.174 251.07 710.174Z" fill="url(#paint62_linear_175_188)"/>
<path d="M251.07 719.964C252.497 719.964 253.577 720.569 254.31 721.779C255.057 722.976 255.43 724.717 255.43 727.004C255.43 729.291 255.057 731.039 254.31 732.249C253.577 733.459 252.497 734.064 251.07 734.064C249.657 734.064 248.577 733.459 247.83 732.249C247.084 731.039 246.71 729.291 246.71 727.004C246.71 724.731 247.084 722.989 247.83 721.779C248.577 720.569 249.657 719.964 251.07 719.964ZM248.13 727.004C248.13 728.626 248.277 729.896 248.57 730.813L253.01 721.978C252.543 721.353 251.897 721.041 251.07 721.041C250.15 721.041 249.43 721.533 248.91 722.517C248.39 723.487 248.13 724.983 248.13 727.004ZM251.07 732.967C252.003 732.967 252.73 732.482 253.25 731.511C253.77 730.528 254.03 729.025 254.03 727.004C254.03 725.289 253.863 723.959 253.53 723.015L249.09 731.93C249.57 732.622 250.23 732.967 251.07 732.967Z" fill="url(#paint63_linear_175_188)"/>
<path d="M252.27 755.601H255.21V756.658H247.59V755.601H250.99V744.392L247.75 746.327L247.19 745.429L251.19 742.956H252.27V755.601Z" fill="url(#paint64_linear_175_188)"/>
<path d="M251.07 765.55C252.497 765.55 253.577 766.155 254.31 767.365C255.057 768.561 255.43 770.303 255.43 772.59C255.43 774.877 255.057 776.625 254.31 777.835C253.577 779.045 252.497 779.65 251.07 779.65C249.657 779.65 248.577 779.045 247.83 777.835C247.084 776.625 246.71 774.877 246.71 772.59C246.71 770.316 247.084 768.574 247.83 767.365C248.577 766.155 249.657 765.55 251.07 765.55ZM248.13 772.59C248.13 774.212 248.277 775.482 248.57 776.399L253.01 767.564C252.543 766.939 251.897 766.627 251.07 766.627C250.15 766.627 249.43 767.119 248.91 768.102C248.39 769.073 248.13 770.569 248.13 772.59ZM251.07 778.553C252.003 778.553 252.73 778.068 253.25 777.097C253.77 776.113 254.03 774.611 254.03 772.59C254.03 770.875 253.863 769.545 253.53 768.601L249.09 777.516C249.57 778.207 250.23 778.553 251.07 778.553Z" fill="url(#paint65_linear_175_188)"/>
<path d="M252.27 801.186H255.21V802.243H247.59V801.186H250.99V789.978L247.75 791.912L247.19 791.015L251.19 788.542H252.27V801.186Z" fill="url(#paint66_linear_175_188)"/>
<path d="M251.07 811.135C252.497 811.135 253.577 811.74 254.31 812.95C255.057 814.147 255.43 815.888 255.43 818.175C255.43 820.462 255.057 822.211 254.31 823.421C253.577 824.63 252.497 825.235 251.07 825.235C249.657 825.235 248.577 824.63 247.83 823.421C247.084 822.211 246.71 820.462 246.71 818.175C246.71 815.902 247.084 814.16 247.83 812.95C248.577 811.74 249.657 811.135 251.07 811.135ZM248.13 818.175C248.13 819.797 248.277 821.067 248.57 821.985L253.01 813.15C252.543 812.525 251.897 812.212 251.07 812.212C250.15 812.212 249.43 812.704 248.91 813.688C248.39 814.659 248.13 816.154 248.13 818.175ZM251.07 824.139C252.003 824.139 252.73 823.653 253.25 822.683C253.77 821.699 254.03 820.196 254.03 818.175C254.03 816.46 253.863 815.131 253.53 814.187L249.09 823.101C249.57 823.793 250.23 824.139 251.07 824.139Z" fill="url(#paint67_linear_175_188)"/>
<path d="M251.07 833.928C252.497 833.928 253.577 834.533 254.31 835.743C255.057 836.94 255.43 838.681 255.43 840.968C255.43 843.255 255.057 845.003 254.31 846.213C253.577 847.423 252.497 848.028 251.07 848.028C249.657 848.028 248.577 847.423 247.83 846.213C247.084 845.003 246.71 843.255 246.71 840.968C246.71 838.695 247.084 836.953 247.83 835.743C248.577 834.533 249.657 833.928 251.07 833.928ZM248.13 840.968C248.13 842.59 248.277 843.86 248.57 844.777L253.01 835.942C252.543 835.317 251.897 835.005 251.07 835.005C250.15 835.005 249.43 835.497 248.91 836.481C248.39 837.451 248.13 838.947 248.13 840.968ZM251.07 846.931C252.003 846.931 252.73 846.446 253.25 845.475C253.77 844.492 254.03 842.989 254.03 840.968C254.03 839.253 253.863 837.923 253.53 836.979L249.09 845.894C249.57 846.586 250.23 846.931 251.07 846.931Z" fill="url(#paint68_linear_175_188)"/>
<path d="M252.27 869.565H255.21V870.622H247.59V869.565H250.99V858.356L247.75 860.291L247.19 859.393L251.19 856.92H252.27V869.565Z" fill="url(#paint69_linear_175_188)"/>
<path d="M251.07 879.514C252.497 879.514 253.577 880.119 254.31 881.329C255.057 882.525 255.43 884.267 255.43 886.554C255.43 888.841 255.057 890.589 254.31 891.799C253.577 893.009 252.497 893.614 251.07 893.614C249.657 893.614 248.577 893.009 247.83 891.799C247.084 890.589 246.71 888.841 246.71 886.554C246.71 884.28 247.084 882.538 247.83 881.329C248.577 880.119 249.657 879.514 251.07 879.514ZM248.13 886.554C248.13 888.176 248.277 889.446 248.57 890.363L253.01 881.528C252.543 880.903 251.897 880.591 251.07 880.591C250.15 880.591 249.43 881.083 248.91 882.066C248.39 883.037 248.13 884.533 248.13 886.554ZM251.07 892.517C252.003 892.517 252.73 892.032 253.25 891.061C253.77 890.077 254.03 888.575 254.03 886.554C254.03 884.839 253.863 883.509 253.53 882.565L249.09 891.48C249.57 892.171 250.23 892.517 251.07 892.517Z" fill="url(#paint70_linear_175_188)"/>
<path d="M252.27 915.15H255.21V916.207H247.59V915.15H250.99V903.942L247.75 905.876L247.19 904.979L251.19 902.506H252.27V915.15Z" fill="url(#paint71_linear_175_188)"/>
<path d="M252.27 937.943H255.21V939H247.59V937.943H250.99V926.735L247.75 928.669L247.19 927.772L251.19 925.299H252.27V937.943Z" fill="url(#paint72_linear_175_188)"/>
<path d="M195.36 674.378C196.786 674.378 197.866 674.983 198.599 676.193C199.346 677.39 199.719 679.132 199.719 681.419C199.719 683.705 199.346 685.454 198.599 686.664C197.866 687.874 196.786 688.479 195.36 688.479C193.946 688.479 192.867 687.874 192.12 686.664C191.373 685.454 191 683.705 191 681.419C191 679.145 191.373 677.403 192.12 676.193C192.867 674.983 193.946 674.378 195.36 674.378ZM192.42 681.419C192.42 683.041 192.567 684.31 192.86 685.228L197.3 676.393C196.833 675.768 196.186 675.455 195.36 675.455C194.44 675.455 193.72 675.947 193.2 676.931C192.68 677.902 192.42 679.398 192.42 681.419ZM195.36 687.382C196.293 687.382 197.02 686.896 197.54 685.926C198.06 684.942 198.319 683.44 198.319 681.419C198.319 679.703 198.153 678.374 197.82 677.43L193.38 686.345C193.86 687.036 194.52 687.382 195.36 687.382Z" fill="url(#paint73_linear_175_188)"/>
<path d="M195.36 697.171C196.786 697.171 197.866 697.776 198.599 698.986C199.346 700.183 199.719 701.924 199.719 704.211C199.719 706.498 199.346 708.247 198.599 709.457C197.866 710.666 196.786 711.271 195.36 711.271C193.946 711.271 192.867 710.666 192.12 709.457C191.373 708.247 191 706.498 191 704.211C191 701.938 191.373 700.196 192.12 698.986C192.867 697.776 193.946 697.171 195.36 697.171ZM192.42 704.211C192.42 705.833 192.567 707.103 192.86 708.021L197.3 699.186C196.833 698.561 196.186 698.248 195.36 698.248C194.44 698.248 193.72 698.74 193.2 699.724C192.68 700.695 192.42 702.19 192.42 704.211ZM195.36 710.174C196.293 710.174 197.02 709.689 197.54 708.719C198.06 707.735 198.319 706.232 198.319 704.211C198.319 702.496 198.153 701.167 197.82 700.223L193.38 709.137C193.86 709.829 194.52 710.174 195.36 710.174Z" fill="url(#paint74_linear_175_188)"/>
<path d="M196.56 732.808H199.499V733.865H191.88V732.808H195.28V721.599L192.04 723.534L191.48 722.636L195.48 720.163H196.56V732.808Z" fill="url(#paint75_linear_175_188)"/>
<path d="M195.36 742.757C196.786 742.757 197.866 743.362 198.599 744.572C199.346 745.768 199.719 747.51 199.719 749.797C199.719 752.084 199.346 753.832 198.599 755.042C197.866 756.252 196.786 756.857 195.36 756.857C193.946 756.857 192.867 756.252 192.12 755.042C191.373 753.832 191 752.084 191 749.797C191 747.523 191.373 745.782 192.12 744.572C192.867 743.362 193.946 742.757 195.36 742.757ZM192.42 749.797C192.42 751.419 192.567 752.689 192.86 753.606L197.3 744.771C196.833 744.146 196.186 743.834 195.36 743.834C194.44 743.834 193.72 744.326 193.2 745.31C192.68 746.28 192.42 747.776 192.42 749.797ZM195.36 755.76C196.293 755.76 197.02 755.275 197.54 754.304C198.06 753.32 198.319 751.818 198.319 749.797C198.319 748.082 198.153 746.752 197.82 745.808L193.38 754.723C193.86 755.414 194.52 755.76 195.36 755.76Z" fill="url(#paint76_linear_175_188)"/>
<path d="M196.56 778.393H199.499V779.45H191.88V778.393H195.28V767.185L192.04 769.12L191.48 768.222L195.48 765.749H196.56V778.393Z" fill="url(#paint77_linear_175_188)"/>
<path d="M196.56 801.186H199.499V802.243H191.88V801.186H195.28V789.978L192.04 791.912L191.48 791.015L195.48 788.542H196.56V801.186Z" fill="url(#paint78_linear_175_188)"/>
<path d="M233.7 641.637H236.64V642.694H229.02V641.637H232.42V630.428L229.18 632.363L228.62 631.465L232.62 628.992H233.7V641.637Z" fill="url(#paint79_linear_175_188)"/>
<path d="M232.5 651.586C233.927 651.586 235.006 652.191 235.74 653.4C236.486 654.597 236.86 656.339 236.86 658.626C236.86 660.913 236.486 662.661 235.74 663.871C235.006 665.081 233.927 665.686 232.5 665.686C231.087 665.686 230.007 665.081 229.26 663.871C228.514 662.661 228.14 660.913 228.14 658.626C228.14 656.352 228.514 654.61 229.26 653.4C230.007 652.191 231.087 651.586 232.5 651.586ZM229.56 658.626C229.56 660.248 229.707 661.518 230 662.435L234.44 653.6C233.973 652.975 233.327 652.663 232.5 652.663C231.58 652.663 230.86 653.155 230.34 654.138C229.82 655.109 229.56 656.605 229.56 658.626ZM232.5 664.589C233.433 664.589 234.16 664.104 234.68 663.133C235.2 662.149 235.46 660.647 235.46 658.626C235.46 656.911 235.293 655.581 234.96 654.637L230.52 663.552C231 664.243 231.66 664.589 232.5 664.589Z" fill="url(#paint80_linear_175_188)"/>
<path d="M233.7 687.222H236.64V688.279H229.02V687.222H232.42V676.014L229.18 677.948L228.62 677.051L232.62 674.578H233.7V687.222Z" fill="url(#paint81_linear_175_188)"/>
<path d="M233.7 710.015H236.64V711.072H229.02V710.015H232.42V698.807L229.18 700.741L228.62 699.844L232.62 697.371H233.7V710.015Z" fill="url(#paint82_linear_175_188)"/>
<path d="M232.5 719.964C233.927 719.964 235.006 720.569 235.74 721.779C236.486 722.976 236.86 724.717 236.86 727.004C236.86 729.291 236.486 731.039 235.74 732.249C235.006 733.459 233.927 734.064 232.5 734.064C231.087 734.064 230.007 733.459 229.26 732.249C228.514 731.039 228.14 729.291 228.14 727.004C228.14 724.731 228.514 722.989 229.26 721.779C230.007 720.569 231.087 719.964 232.5 719.964ZM229.56 727.004C229.56 728.626 229.707 729.896 230 730.813L234.44 721.978C233.973 721.353 233.327 721.041 232.5 721.041C231.58 721.041 230.86 721.533 230.34 722.517C229.82 723.487 229.56 724.983 229.56 727.004ZM232.5 732.967C233.433 732.967 234.16 732.482 234.68 731.511C235.2 730.528 235.46 729.025 235.46 727.004C235.46 725.289 235.293 723.959 234.96 723.015L230.52 731.93C231 732.622 231.66 732.967 232.5 732.967Z" fill="url(#paint83_linear_175_188)"/>
<path d="M233.7 755.601H236.64V756.658H229.02V755.601H232.42V744.392L229.18 746.327L228.62 745.429L232.62 742.956H233.7V755.601Z" fill="url(#paint84_linear_175_188)"/>
<path d="M233.7 778.393H236.64V779.45H229.02V778.393H232.42V767.185L229.18 769.12L228.62 768.222L232.62 765.749H233.7V778.393Z" fill="url(#paint85_linear_175_188)"/>
<path d="M232.5 788.342C233.927 788.342 235.006 788.947 235.74 790.157C236.486 791.354 236.86 793.096 236.86 795.383C236.86 797.669 236.486 799.418 235.74 800.628C235.006 801.838 233.927 802.443 232.5 802.443C231.087 802.443 230.007 801.838 229.26 800.628C228.514 799.418 228.14 797.669 228.14 795.383C228.14 793.109 228.514 791.367 229.26 790.157C230.007 788.947 231.087 788.342 232.5 788.342ZM229.56 795.383C229.56 797.005 229.707 798.274 230 799.192L234.44 790.357C233.973 789.732 233.327 789.419 232.5 789.419C231.58 789.419 230.86 789.911 230.34 790.895C229.82 791.866 229.56 793.362 229.56 795.383ZM232.5 801.346C233.433 801.346 234.16 800.86 234.68 799.89C235.2 798.906 235.46 797.404 235.46 795.383C235.46 793.667 235.293 792.338 234.96 791.394L230.52 800.309C231 801 231.66 801.346 232.5 801.346Z" fill="url(#paint86_linear_175_188)"/>
<path d="M233.7 823.979H236.64V825.036H229.02V823.979H232.42V812.771L229.18 814.705L228.62 813.808L232.62 811.335H233.7V823.979Z" fill="url(#paint87_linear_175_188)"/>
<path d="M232.5 833.928C233.927 833.928 235.006 834.533 235.74 835.743C236.486 836.94 236.86 838.681 236.86 840.968C236.86 843.255 236.486 845.003 235.74 846.213C235.006 847.423 233.927 848.028 232.5 848.028C231.087 848.028 230.007 847.423 229.26 846.213C228.514 845.003 228.14 843.255 228.14 840.968C228.14 838.695 228.514 836.953 229.26 835.743C230.007 834.533 231.087 833.928 232.5 833.928ZM229.56 840.968C229.56 842.59 229.707 843.86 230 844.777L234.44 835.942C233.973 835.317 233.327 835.005 232.5 835.005C231.58 835.005 230.86 835.497 230.34 836.481C229.82 837.451 229.56 838.947 229.56 840.968ZM232.5 846.931C233.433 846.931 234.16 846.446 234.68 845.475C235.2 844.492 235.46 842.989 235.46 840.968C235.46 839.253 235.293 837.923 234.96 836.979L230.52 845.894C231 846.586 231.66 846.931 232.5 846.931Z" fill="url(#paint88_linear_175_188)"/>
<path d="M269.64 628.793C271.067 628.793 272.147 629.398 272.88 630.608C273.627 631.804 274 633.546 274 635.833C274 638.12 273.627 639.868 272.88 641.078C272.147 642.288 271.067 642.893 269.64 642.893C268.227 642.893 267.147 642.288 266.401 641.078C265.654 639.868 265.281 638.12 265.281 635.833C265.281 633.559 265.654 631.818 266.401 630.608C267.147 629.398 268.227 628.793 269.64 628.793ZM266.7 635.833C266.7 637.455 266.847 638.725 267.14 639.642L271.58 630.807C271.114 630.182 270.467 629.87 269.64 629.87C268.72 629.87 268 630.362 267.48 631.346C266.96 632.316 266.7 633.812 266.7 635.833ZM269.64 641.796C270.574 641.796 271.3 641.311 271.82 640.34C272.34 639.356 272.6 637.854 272.6 635.833C272.6 634.118 272.433 632.788 272.1 631.844L267.66 640.759C268.14 641.45 268.8 641.796 269.64 641.796Z" fill="url(#paint89_linear_175_188)"/>
<path d="M270.84 664.429H273.78V665.486H266.161V664.429H269.56V653.221L266.321 655.156L265.761 654.258L269.76 651.785H270.84V664.429Z" fill="url(#paint90_linear_175_188)"/>
<path d="M270.84 687.222H273.78V688.279H266.161V687.222H269.56V676.014L266.321 677.948L265.761 677.051L269.76 674.578H270.84V687.222Z" fill="url(#paint91_linear_175_188)"/>
<path d="M269.64 697.171C271.067 697.171 272.147 697.776 272.88 698.986C273.627 700.183 274 701.924 274 704.211C274 706.498 273.627 708.247 272.88 709.457C272.147 710.666 271.067 711.271 269.64 711.271C268.227 711.271 267.147 710.666 266.401 709.457C265.654 708.247 265.281 706.498 265.281 704.211C265.281 701.938 265.654 700.196 266.401 698.986C267.147 697.776 268.227 697.171 269.64 697.171ZM266.7 704.211C266.7 705.833 266.847 707.103 267.14 708.021L271.58 699.186C271.114 698.561 270.467 698.248 269.64 698.248C268.72 698.248 268 698.74 267.48 699.724C266.96 700.695 266.7 702.19 266.7 704.211ZM269.64 710.174C270.574 710.174 271.3 709.689 271.82 708.719C272.34 707.735 272.6 706.232 272.6 704.211C272.6 702.496 272.433 701.167 272.1 700.223L267.66 709.137C268.14 709.829 268.8 710.174 269.64 710.174Z" fill="url(#paint92_linear_175_188)"/>
<path d="M269.64 719.964C271.067 719.964 272.147 720.569 272.88 721.779C273.627 722.976 274 724.717 274 727.004C274 729.291 273.627 731.039 272.88 732.249C272.147 733.459 271.067 734.064 269.64 734.064C268.227 734.064 267.147 733.459 266.401 732.249C265.654 731.039 265.281 729.291 265.281 727.004C265.281 724.731 265.654 722.989 266.401 721.779C267.147 720.569 268.227 719.964 269.64 719.964ZM266.7 727.004C266.7 728.626 266.847 729.896 267.14 730.813L271.58 721.978C271.114 721.353 270.467 721.041 269.64 721.041C268.72 721.041 268 721.533 267.48 722.517C266.96 723.487 266.7 724.983 266.7 727.004ZM269.64 732.967C270.574 732.967 271.3 732.482 271.82 731.511C272.34 730.528 272.6 729.025 272.6 727.004C272.6 725.289 272.433 723.959 272.1 723.015L267.66 731.93C268.14 732.622 268.8 732.967 269.64 732.967Z" fill="url(#paint93_linear_175_188)"/>
</g>
<defs>
<filter id="filter0_f_175_188" x="-380.19" y="-380.19" width="2141.38" height="1500.38" filterUnits="userSpaceOnUse" color-interpolation-filters="sRGB">
<feFlood flood-opacity="0" result="BackgroundImageFix"/>
<feBlend mode="normal" in="SourceGraphic" in2="BackgroundImageFix" result="shape"/>
<feGaussianBlur stdDeviation="200.095" result="effect1_foregroundBlur_175_188"/>
</filter>
<linearGradient id="paint0_linear_175_188" x1="1116.5" y1="306" x2="1116.5" y2="604.818" gradientUnits="userSpaceOnUse">
<stop stop-color="#020CFB"/>
<stop offset="0.479167" stop-color="#819502" stop-opacity="0.520833"/>
<stop offset="1" stop-color="#01F027" stop-opacity="0"/>
</linearGradient>
<linearGradient id="paint1_linear_175_188" x1="1116.5" y1="306" x2="1116.5" y2="604.818" gradientUnits="userSpaceOnUse">
<stop stop-color="#020CFB"/>
<stop offset="0.479167" stop-color="#819502" stop-opacity="0.520833"/>
<stop offset="1" stop-color="#01F027" stop-opacity="0"/>
</linearGradient>
<linearGradient id="paint2_linear_175_188" x1="1116.5" y1="306" x2="1116.5" y2="604.818" gradientUnits="userSpaceOnUse">
<stop stop-color="#020CFB"/>
<stop offset="0.479167" stop-color="#819502" stop-opacity="0.520833"/>
<stop offset="1" stop-color="#01F027" stop-opacity="0"/>
</linearGradient>
<linearGradient id="paint3_linear_175_188" x1="1116.5" y1="306" x2="1116.5" y2="604.818" gradientUnits="userSpaceOnUse">
<stop stop-color="#020CFB"/>
<stop offset="0.479167" stop-color="#819502" stop-opacity="0.520833"/>
<stop offset="1" stop-color="#01F027" stop-opacity="0"/>
</linearGradient>
<linearGradient id="paint4_linear_175_188" x1="1116.5" y1="306" x2="1116.5" y2="604.818" gradientUnits="userSpaceOnUse">
<stop stop-color="#020CFB"/>
<stop offset="0.479167" stop-color="#819502" stop-opacity="0.520833"/>
<stop offset="1" stop-color="#01F027" stop-opacity="0"/>
</linearGradient>
<linearGradient id="paint5_linear_175_188" x1="1116.5" y1="306" x2="1116.5" y2="604.818" gradientUnits="userSpaceOnUse">
<stop stop-color="#020CFB"/>
<stop offset="0.479167" stop-color="#819502" stop-opacity="0.520833"/>
<stop offset="1" stop-color="#01F027" stop-opacity="0"/>
</linearGradient>
<linearGradient id="paint6_linear_175_188" x1="1116.5" y1="306" x2="1116.5" y2="604.818" gradientUnits="userSpaceOnUse">
<stop stop-color="#020CFB"/>
<stop offset="0.479167" stop-color="#819502" stop-opacity="0.520833"/>
<stop offset="1" stop-color="#01F027" stop-opacity="0"/>
</linearGradient>
<linearGradient id="paint7_linear_175_188" x1="1116.5" y1="306" x2="1116.5" y2="604.818" gradientUnits="userSpaceOnUse">
<stop stop-color="#020CFB"/>
<stop offset="0.479167" stop-color="#819502" stop-opacity="0.520833"/>
<stop offset="1" stop-color="#01F027" stop-opacity="0"/>
</linearGradient>
<linearGradient id="paint8_linear_175_188" x1="1116.5" y1="306" x2="1116.5" y2="604.818" gradientUnits="userSpaceOnUse">
<stop stop-color="#020CFB"/>
<stop offset="0.479167" stop-color="#819502" stop-opacity="0.520833"/>
<stop offset="1" stop-color="#01F027" stop-opacity="0"/>
</linearGradient>
<linearGradient id="paint9_linear_175_188" x1="1116.5" y1="306" x2="1116.5" y2="604.818" gradientUnits="userSpaceOnUse">
<stop stop-color="#020CFB"/>
<stop offset="0.479167" stop-color="#819502" stop-opacity="0.520833"/>
<stop offset="1" stop-color="#01F027" stop-opacity="0"/>
</linearGradient>
<linearGradient id="paint10_linear_175_188" x1="1116.5" y1="306" x2="1116.5" y2="604.818" gradientUnits="userSpaceOnUse">
<stop stop-color="#020CFB"/>
<stop offset="0.479167" stop-color="#819502" stop-opacity="0.520833"/>
<stop offset="1" stop-color="#01F027" stop-opacity="0"/>
</linearGradient>
<linearGradient id="paint11_linear_175_188" x1="1116.5" y1="306" x2="1116.5" y2="604.818" gradientUnits="userSpaceOnUse">
<stop stop-color="#020CFB"/>
<stop offset="0.479167" stop-color="#819502" stop-opacity="0.520833"/>
<stop offset="1" stop-color="#01F027" stop-opacity="0"/>
</linearGradient>
<linearGradient id="paint12_linear_175_188" x1="1116.5" y1="306" x2="1116.5" y2="604.818" gradientUnits="userSpaceOnUse">
<stop stop-color="#020CFB"/>
<stop offset="0.479167" stop-color="#819502" stop-opacity="0.520833"/>
<stop offset="1" stop-color="#01F027" stop-opacity="0"/>
</linearGradient>
<linearGradient id="paint13_linear_175_188" x1="1116.5" y1="306" x2="1116.5" y2="604.818" gradientUnits="userSpaceOnUse">
<stop stop-color="#020CFB"/>
<stop offset="0.479167" stop-color="#819502" stop-opacity="0.520833"/>
<stop offset="1" stop-color="#01F027" stop-opacity="0"/>
</linearGradient>
<linearGradient id="paint14_linear_175_188" x1="1116.5" y1="306" x2="1116.5" y2="604.818" gradientUnits="userSpaceOnUse">
<stop stop-color="#020CFB"/>
<stop offset="0.479167" stop-color="#819502" stop-opacity="0.520833"/>
<stop offset="1" stop-color="#01F027" stop-opacity="0"/>
</linearGradient>
<linearGradient id="paint15_linear_175_188" x1="1116.5" y1="306" x2="1116.5" y2="604.818" gradientUnits="userSpaceOnUse">
<stop stop-color="#020CFB"/>
<stop offset="0.479167" stop-color="#819502" stop-opacity="0.520833"/>
<stop offset="1" stop-color="#01F027" stop-opacity="0"/>
</linearGradient>
<linearGradient id="paint16_linear_175_188" x1="1116.5" y1="306" x2="1116.5" y2="604.818" gradientUnits="userSpaceOnUse">
<stop stop-color="#020CFB"/>
<stop offset="0.479167" stop-color="#819502" stop-opacity="0.520833"/>
<stop offset="1" stop-color="#01F027" stop-opacity="0"/>
</linearGradient>
<linearGradient id="paint17_linear_175_188" x1="1116.5" y1="306" x2="1116.5" y2="604.818" gradientUnits="userSpaceOnUse">
<stop stop-color="#020CFB"/>
<stop offset="0.479167" stop-color="#819502" stop-opacity="0.520833"/>
<stop offset="1" stop-color="#01F027" stop-opacity="0"/>
</linearGradient>
<linearGradient id="paint18_linear_175_188" x1="1116.5" y1="306" x2="1116.5" y2="604.818" gradientUnits="userSpaceOnUse">
<stop stop-color="#020CFB"/>
<stop offset="0.479167" stop-color="#819502" stop-opacity="0.520833"/>
<stop offset="1" stop-color="#01F027" stop-opacity="0"/>
</linearGradient>
<linearGradient id="paint19_linear_175_188" x1="1116.5" y1="306" x2="1116.5" y2="604.818" gradientUnits="userSpaceOnUse">
<stop stop-color="#020CFB"/>
<stop offset="0.479167" stop-color="#819502" stop-opacity="0.520833"/>
<stop offset="1" stop-color="#01F027" stop-opacity="0"/>
</linearGradient>
<linearGradient id="paint20_linear_175_188" x1="1116.5" y1="306" x2="1116.5" y2="604.818" gradientUnits="userSpaceOnUse">
<stop stop-color="#020CFB"/>
<stop offset="0.479167" stop-color="#819502" stop-opacity="0.520833"/>
<stop offset="1" stop-color="#01F027" stop-opacity="0"/>
</linearGradient>
<linearGradient id="paint21_linear_175_188" x1="1116.5" y1="306" x2="1116.5" y2="604.818" gradientUnits="userSpaceOnUse">
<stop stop-color="#020CFB"/>
<stop offset="0.479167" stop-color="#819502" stop-opacity="0.520833"/>
<stop offset="1" stop-color="#01F027" stop-opacity="0"/>
</linearGradient>
<linearGradient id="paint22_linear_175_188" x1="1116.5" y1="306" x2="1116.5" y2="604.818" gradientUnits="userSpaceOnUse">
<stop stop-color="#020CFB"/>
<stop offset="0.479167" stop-color="#819502" stop-opacity="0.520833"/>
<stop offset="1" stop-color="#01F027" stop-opacity="0"/>
</linearGradient>
<linearGradient id="paint23_linear_175_188" x1="1116.5" y1="306" x2="1116.5" y2="604.818" gradientUnits="userSpaceOnUse">
<stop stop-color="#020CFB"/>
<stop offset="0.479167" stop-color="#819502" stop-opacity="0.520833"/>
<stop offset="1" stop-color="#01F027" stop-opacity="0"/>
</linearGradient>
<linearGradient id="paint24_linear_175_188" x1="1116.5" y1="306" x2="1116.5" y2="604.818" gradientUnits="userSpaceOnUse">
<stop stop-color="#020CFB"/>
<stop offset="0.479167" stop-color="#819502" stop-opacity="0.520833"/>
<stop offset="1" stop-color="#01F027" stop-opacity="0"/>
</linearGradient>
<linearGradient id="paint25_linear_175_188" x1="1116.5" y1="306" x2="1116.5" y2="604.818" gradientUnits="userSpaceOnUse">
<stop stop-color="#020CFB"/>
<stop offset="0.479167" stop-color="#819502" stop-opacity="0.520833"/>
<stop offset="1" stop-color="#01F027" stop-opacity="0"/>
</linearGradient>
<linearGradient id="paint26_linear_175_188" x1="1116.5" y1="306" x2="1116.5" y2="604.818" gradientUnits="userSpaceOnUse">
<stop stop-color="#020CFB"/>
<stop offset="0.479167" stop-color="#819502" stop-opacity="0.520833"/>
<stop offset="1" stop-color="#01F027" stop-opacity="0"/>
</linearGradient>
<linearGradient id="paint27_linear_175_188" x1="1116.5" y1="306" x2="1116.5" y2="604.818" gradientUnits="userSpaceOnUse">
<stop stop-color="#020CFB"/>
<stop offset="0.479167" stop-color="#819502" stop-opacity="0.520833"/>
<stop offset="1" stop-color="#01F027" stop-opacity="0"/>
</linearGradient>
<linearGradient id="paint28_linear_175_188" x1="1116.5" y1="306" x2="1116.5" y2="604.818" gradientUnits="userSpaceOnUse">
<stop stop-color="#020CFB"/>
<stop offset="0.479167" stop-color="#819502" stop-opacity="0.520833"/>
<stop offset="1" stop-color="#01F027" stop-opacity="0"/>
</linearGradient>
<linearGradient id="paint29_linear_175_188" x1="1116.5" y1="306" x2="1116.5" y2="604.818" gradientUnits="userSpaceOnUse">
<stop stop-color="#020CFB"/>
<stop offset="0.479167" stop-color="#819502" stop-opacity="0.520833"/>
<stop offset="1" stop-color="#01F027" stop-opacity="0"/>
</linearGradient>
<linearGradient id="paint30_linear_175_188" x1="1116.5" y1="306" x2="1116.5" y2="604.818" gradientUnits="userSpaceOnUse">
<stop stop-color="#020CFB"/>
<stop offset="0.479167" stop-color="#819502" stop-opacity="0.520833"/>
<stop offset="1" stop-color="#01F027" stop-opacity="0"/>
</linearGradient>
<linearGradient id="paint31_linear_175_188" x1="1116.5" y1="306" x2="1116.5" y2="604.818" gradientUnits="userSpaceOnUse">
<stop stop-color="#020CFB"/>
<stop offset="0.479167" stop-color="#819502" stop-opacity="0.520833"/>
<stop offset="1" stop-color="#01F027" stop-opacity="0"/>
</linearGradient>
<linearGradient id="paint32_linear_175_188" x1="1116.5" y1="306" x2="1116.5" y2="604.818" gradientUnits="userSpaceOnUse">
<stop stop-color="#020CFB"/>
<stop offset="0.479167" stop-color="#819502" stop-opacity="0.520833"/>
<stop offset="1" stop-color="#01F027" stop-opacity="0"/>
</linearGradient>
<linearGradient id="paint33_linear_175_188" x1="1116.5" y1="306" x2="1116.5" y2="604.818" gradientUnits="userSpaceOnUse">
<stop stop-color="#020CFB"/>
<stop offset="0.479167" stop-color="#819502" stop-opacity="0.520833"/>
<stop offset="1" stop-color="#01F027" stop-opacity="0"/>
</linearGradient>
<linearGradient id="paint34_linear_175_188" x1="1116.5" y1="306" x2="1116.5" y2="604.818" gradientUnits="userSpaceOnUse">
<stop stop-color="#020CFB"/>
<stop offset="0.479167" stop-color="#819502" stop-opacity="0.520833"/>
<stop offset="1" stop-color="#01F027" stop-opacity="0"/>
</linearGradient>
<linearGradient id="paint35_linear_175_188" x1="1116.5" y1="306" x2="1116.5" y2="604.818" gradientUnits="userSpaceOnUse">
<stop stop-color="#020CFB"/>
<stop offset="0.479167" stop-color="#819502" stop-opacity="0.520833"/>
<stop offset="1" stop-color="#01F027" stop-opacity="0"/>
</linearGradient>
<linearGradient id="paint36_linear_175_188" x1="1116.5" y1="306" x2="1116.5" y2="604.818" gradientUnits="userSpaceOnUse">
<stop stop-color="#020CFB"/>
<stop offset="0.479167" stop-color="#819502" stop-opacity="0.520833"/>
<stop offset="1" stop-color="#01F027" stop-opacity="0"/>
</linearGradient>
<linearGradient id="paint37_linear_175_188" x1="1116.5" y1="306" x2="1116.5" y2="604.818" gradientUnits="userSpaceOnUse">
<stop stop-color="#020CFB"/>
<stop offset="0.479167" stop-color="#819502" stop-opacity="0.520833"/>
<stop offset="1" stop-color="#01F027" stop-opacity="0"/>
</linearGradient>
<linearGradient id="paint38_linear_175_188" x1="1116.5" y1="306" x2="1116.5" y2="604.818" gradientUnits="userSpaceOnUse">
<stop stop-color="#020CFB"/>
<stop offset="0.479167" stop-color="#819502" stop-opacity="0.520833"/>
<stop offset="1" stop-color="#01F027" stop-opacity="0"/>
</linearGradient>
<linearGradient id="paint39_linear_175_188" x1="1116.5" y1="306" x2="1116.5" y2="604.818" gradientUnits="userSpaceOnUse">
<stop stop-color="#020CFB"/>
<stop offset="0.479167" stop-color="#819502" stop-opacity="0.520833"/>
<stop offset="1" stop-color="#01F027" stop-opacity="0"/>
</linearGradient>
<linearGradient id="paint40_linear_175_188" x1="1116.5" y1="306" x2="1116.5" y2="604.818" gradientUnits="userSpaceOnUse">
<stop stop-color="#020CFB"/>
<stop offset="0.479167" stop-color="#819502" stop-opacity="0.520833"/>
<stop offset="1" stop-color="#01F027" stop-opacity="0"/>
</linearGradient>
<linearGradient id="paint41_linear_175_188" x1="1116.5" y1="306" x2="1116.5" y2="604.818" gradientUnits="userSpaceOnUse">
<stop stop-color="#020CFB"/>
<stop offset="0.479167" stop-color="#819502" stop-opacity="0.520833"/>
<stop offset="1" stop-color="#01F027" stop-opacity="0"/>
</linearGradient>
<linearGradient id="paint42_linear_175_188" x1="1116.5" y1="306" x2="1116.5" y2="604.818" gradientUnits="userSpaceOnUse">
<stop stop-color="#020CFB"/>
<stop offset="0.479167" stop-color="#819502" stop-opacity="0.520833"/>
<stop offset="1" stop-color="#01F027" stop-opacity="0"/>
</linearGradient>
<linearGradient id="paint43_linear_175_188" x1="1116.5" y1="306" x2="1116.5" y2="604.818" gradientUnits="userSpaceOnUse">
<stop stop-color="#020CFB"/>
<stop offset="0.479167" stop-color="#819502" stop-opacity="0.520833"/>
<stop offset="1" stop-color="#01F027" stop-opacity="0"/>
</linearGradient>
<linearGradient id="paint44_linear_175_188" x1="1116.5" y1="306" x2="1116.5" y2="604.818" gradientUnits="userSpaceOnUse">
<stop stop-color="#020CFB"/>
<stop offset="0.479167" stop-color="#819502" stop-opacity="0.520833"/>
<stop offset="1" stop-color="#01F027" stop-opacity="0"/>
</linearGradient>
<linearGradient id="paint45_linear_175_188" x1="1116.5" y1="306" x2="1116.5" y2="604.818" gradientUnits="userSpaceOnUse">
<stop stop-color="#020CFB"/>
<stop offset="0.479167" stop-color="#819502" stop-opacity="0.520833"/>
<stop offset="1" stop-color="#01F027" stop-opacity="0"/>
</linearGradient>
<linearGradient id="paint46_linear_175_188" x1="1116.5" y1="306" x2="1116.5" y2="604.818" gradientUnits="userSpaceOnUse">
<stop stop-color="#020CFB"/>
<stop offset="0.479167" stop-color="#819502" stop-opacity="0.520833"/>
<stop offset="1" stop-color="#01F027" stop-opacity="0"/>
</linearGradient>
<linearGradient id="paint47_linear_175_188" x1="232.5" y1="606" x2="232.5" y2="904.818" gradientUnits="userSpaceOnUse">
<stop stop-color="#020CFB"/>
<stop offset="0.479167" stop-color="#819502" stop-opacity="0.520833"/>
<stop offset="1" stop-color="#01F027" stop-opacity="0"/>
</linearGradient>
<linearGradient id="paint48_linear_175_188" x1="232.5" y1="606" x2="232.5" y2="904.818" gradientUnits="userSpaceOnUse">
<stop stop-color="#020CFB"/>
<stop offset="0.479167" stop-color="#819502" stop-opacity="0.520833"/>
<stop offset="1" stop-color="#01F027" stop-opacity="0"/>
</linearGradient>
<linearGradient id="paint49_linear_175_188" x1="232.5" y1="606" x2="232.5" y2="904.818" gradientUnits="userSpaceOnUse">
<stop stop-color="#020CFB"/>
<stop offset="0.479167" stop-color="#819502" stop-opacity="0.520833"/>
<stop offset="1" stop-color="#01F027" stop-opacity="0"/>
</linearGradient>
<linearGradient id="paint50_linear_175_188" x1="232.5" y1="606" x2="232.5" y2="904.818" gradientUnits="userSpaceOnUse">
<stop stop-color="#020CFB"/>
<stop offset="0.479167" stop-color="#819502" stop-opacity="0.520833"/>
<stop offset="1" stop-color="#01F027" stop-opacity="0"/>
</linearGradient>
<linearGradient id="paint51_linear_175_188" x1="232.5" y1="606" x2="232.5" y2="904.818" gradientUnits="userSpaceOnUse">
<stop stop-color="#020CFB"/>
<stop offset="0.479167" stop-color="#819502" stop-opacity="0.520833"/>
<stop offset="1" stop-color="#01F027" stop-opacity="0"/>
</linearGradient>
<linearGradient id="paint52_linear_175_188" x1="232.5" y1="606" x2="232.5" y2="904.818" gradientUnits="userSpaceOnUse">
<stop stop-color="#020CFB"/>
<stop offset="0.479167" stop-color="#819502" stop-opacity="0.520833"/>
<stop offset="1" stop-color="#01F027" stop-opacity="0"/>
</linearGradient>
<linearGradient id="paint53_linear_175_188" x1="232.5" y1="606" x2="232.5" y2="904.818" gradientUnits="userSpaceOnUse">
<stop stop-color="#020CFB"/>
<stop offset="0.479167" stop-color="#819502" stop-opacity="0.520833"/>
<stop offset="1" stop-color="#01F027" stop-opacity="0"/>
</linearGradient>
<linearGradient id="paint54_linear_175_188" x1="232.5" y1="606" x2="232.5" y2="904.818" gradientUnits="userSpaceOnUse">
<stop stop-color="#020CFB"/>
<stop offset="0.479167" stop-color="#819502" stop-opacity="0.520833"/>
<stop offset="1" stop-color="#01F027" stop-opacity="0"/>
</linearGradient>
<linearGradient id="paint55_linear_175_188" x1="232.5" y1="606" x2="232.5" y2="904.818" gradientUnits="userSpaceOnUse">
<stop stop-color="#020CFB"/>
<stop offset="0.479167" stop-color="#819502" stop-opacity="0.520833"/>
<stop offset="1" stop-color="#01F027" stop-opacity="0"/>
</linearGradient>
<linearGradient id="paint56_linear_175_188" x1="232.5" y1="606" x2="232.5" y2="904.818" gradientUnits="userSpaceOnUse">
<stop stop-color="#020CFB"/>
<stop offset="0.479167" stop-color="#819502" stop-opacity="0.520833"/>
<stop offset="1" stop-color="#01F027" stop-opacity="0"/>
</linearGradient>
<linearGradient id="paint57_linear_175_188" x1="232.5" y1="606" x2="232.5" y2="904.818" gradientUnits="userSpaceOnUse">
<stop stop-color="#020CFB"/>
<stop offset="0.479167" stop-color="#819502" stop-opacity="0.520833"/>
<stop offset="1" stop-color="#01F027" stop-opacity="0"/>
</linearGradient>
<linearGradient id="paint58_linear_175_188" x1="232.5" y1="606" x2="232.5" y2="904.818" gradientUnits="userSpaceOnUse">
<stop stop-color="#020CFB"/>
<stop offset="0.479167" stop-color="#819502" stop-opacity="0.520833"/>
<stop offset="1" stop-color="#01F027" stop-opacity="0"/>
</linearGradient>
<linearGradient id="paint59_linear_175_188" x1="232.5" y1="606" x2="232.5" y2="904.818" gradientUnits="userSpaceOnUse">
<stop stop-color="#020CFB"/>
<stop offset="0.479167" stop-color="#819502" stop-opacity="0.520833"/>
<stop offset="1" stop-color="#01F027" stop-opacity="0"/>
</linearGradient>
<linearGradient id="paint60_linear_175_188" x1="232.5" y1="606" x2="232.5" y2="904.818" gradientUnits="userSpaceOnUse">
<stop stop-color="#020CFB"/>
<stop offset="0.479167" stop-color="#819502" stop-opacity="0.520833"/>
<stop offset="1" stop-color="#01F027" stop-opacity="0"/>
</linearGradient>
<linearGradient id="paint61_linear_175_188" x1="232.5" y1="606" x2="232.5" y2="904.818" gradientUnits="userSpaceOnUse">
<stop stop-color="#020CFB"/>
<stop offset="0.479167" stop-color="#819502" stop-opacity="0.520833"/>
<stop offset="1" stop-color="#01F027" stop-opacity="0"/>
</linearGradient>
<linearGradient id="paint62_linear_175_188" x1="232.5" y1="606" x2="232.5" y2="904.818" gradientUnits="userSpaceOnUse">
<stop stop-color="#020CFB"/>
<stop offset="0.479167" stop-color="#819502" stop-opacity="0.520833"/>
<stop offset="1" stop-color="#01F027" stop-opacity="0"/>
</linearGradient>
<linearGradient id="paint63_linear_175_188" x1="232.5" y1="606" x2="232.5" y2="904.818" gradientUnits="userSpaceOnUse">
<stop stop-color="#020CFB"/>
<stop offset="0.479167" stop-color="#819502" stop-opacity="0.520833"/>
<stop offset="1" stop-color="#01F027" stop-opacity="0"/>
</linearGradient>
<linearGradient id="paint64_linear_175_188" x1="232.5" y1="606" x2="232.5" y2="904.818" gradientUnits="userSpaceOnUse">
<stop stop-color="#020CFB"/>
<stop offset="0.479167" stop-color="#819502" stop-opacity="0.520833"/>
<stop offset="1" stop-color="#01F027" stop-opacity="0"/>
</linearGradient>
<linearGradient id="paint65_linear_175_188" x1="232.5" y1="606" x2="232.5" y2="904.818" gradientUnits="userSpaceOnUse">
<stop stop-color="#020CFB"/>
<stop offset="0.479167" stop-color="#819502" stop-opacity="0.520833"/>
<stop offset="1" stop-color="#01F027" stop-opacity="0"/>
</linearGradient>
<linearGradient id="paint66_linear_175_188" x1="232.5" y1="606" x2="232.5" y2="904.818" gradientUnits="userSpaceOnUse">
<stop stop-color="#020CFB"/>
<stop offset="0.479167" stop-color="#819502" stop-opacity="0.520833"/>
<stop offset="1" stop-color="#01F027" stop-opacity="0"/>
</linearGradient>
<linearGradient id="paint67_linear_175_188" x1="232.5" y1="606" x2="232.5" y2="904.818" gradientUnits="userSpaceOnUse">
<stop stop-color="#020CFB"/>
<stop offset="0.479167" stop-color="#819502" stop-opacity="0.520833"/>
<stop offset="1" stop-color="#01F027" stop-opacity="0"/>
</linearGradient>
<linearGradient id="paint68_linear_175_188" x1="232.5" y1="606" x2="232.5" y2="904.818" gradientUnits="userSpaceOnUse">
<stop stop-color="#020CFB"/>
<stop offset="0.479167" stop-color="#819502" stop-opacity="0.520833"/>
<stop offset="1" stop-color="#01F027" stop-opacity="0"/>
</linearGradient>
<linearGradient id="paint69_linear_175_188" x1="232.5" y1="606" x2="232.5" y2="904.818" gradientUnits="userSpaceOnUse">
<stop stop-color="#020CFB"/>
<stop offset="0.479167" stop-color="#819502" stop-opacity="0.520833"/>
<stop offset="1" stop-color="#01F027" stop-opacity="0"/>
</linearGradient>
<linearGradient id="paint70_linear_175_188" x1="232.5" y1="606" x2="232.5" y2="904.818" gradientUnits="userSpaceOnUse">
<stop stop-color="#020CFB"/>
<stop offset="0.479167" stop-color="#819502" stop-opacity="0.520833"/>
<stop offset="1" stop-color="#01F027" stop-opacity="0"/>
</linearGradient>
<linearGradient id="paint71_linear_175_188" x1="232.5" y1="606" x2="232.5" y2="904.818" gradientUnits="userSpaceOnUse">
<stop stop-color="#020CFB"/>
<stop offset="0.479167" stop-color="#819502" stop-opacity="0.520833"/>
<stop offset="1" stop-color="#01F027" stop-opacity="0"/>
</linearGradient>
<linearGradient id="paint72_linear_175_188" x1="232.5" y1="606" x2="232.5" y2="904.818" gradientUnits="userSpaceOnUse">
<stop stop-color="#020CFB"/>
<stop offset="0.479167" stop-color="#819502" stop-opacity="0.520833"/>
<stop offset="1" stop-color="#01F027" stop-opacity="0"/>
</linearGradient>
<linearGradient id="paint73_linear_175_188" x1="232.5" y1="606" x2="232.5" y2="904.818" gradientUnits="userSpaceOnUse">
<stop stop-color="#020CFB"/>
<stop offset="0.479167" stop-color="#819502" stop-opacity="0.520833"/>
<stop offset="1" stop-color="#01F027" stop-opacity="0"/>
</linearGradient>
<linearGradient id="paint74_linear_175_188" x1="232.5" y1="606" x2="232.5" y2="904.818" gradientUnits="userSpaceOnUse">
<stop stop-color="#020CFB"/>
<stop offset="0.479167" stop-color="#819502" stop-opacity="0.520833"/>
<stop offset="1" stop-color="#01F027" stop-opacity="0"/>
</linearGradient>
<linearGradient id="paint75_linear_175_188" x1="232.5" y1="606" x2="232.5" y2="904.818" gradientUnits="userSpaceOnUse">
<stop stop-color="#020CFB"/>
<stop offset="0.479167" stop-color="#819502" stop-opacity="0.520833"/>
<stop offset="1" stop-color="#01F027" stop-opacity="0"/>
</linearGradient>
<linearGradient id="paint76_linear_175_188" x1="232.5" y1="606" x2="232.5" y2="904.818" gradientUnits="userSpaceOnUse">
<stop stop-color="#020CFB"/>
<stop offset="0.479167" stop-color="#819502" stop-opacity="0.520833"/>
<stop offset="1" stop-color="#01F027" stop-opacity="0"/>
</linearGradient>
<linearGradient id="paint77_linear_175_188" x1="232.5" y1="606" x2="232.5" y2="904.818" gradientUnits="userSpaceOnUse">
<stop stop-color="#020CFB"/>
<stop offset="0.479167" stop-color="#819502" stop-opacity="0.520833"/>
<stop offset="1" stop-color="#01F027" stop-opacity="0"/>
</linearGradient>
<linearGradient id="paint78_linear_175_188" x1="232.5" y1="606" x2="232.5" y2="904.818" gradientUnits="userSpaceOnUse">
<stop stop-color="#020CFB"/>
<stop offset="0.479167" stop-color="#819502" stop-opacity="0.520833"/>
<stop offset="1" stop-color="#01F027" stop-opacity="0"/>
</linearGradient>
<linearGradient id="paint79_linear_175_188" x1="232.5" y1="606" x2="232.5" y2="904.818" gradientUnits="userSpaceOnUse">
<stop stop-color="#020CFB"/>
<stop offset="0.479167" stop-color="#819502" stop-opacity="0.520833"/>
<stop offset="1" stop-color="#01F027" stop-opacity="0"/>
</linearGradient>
<linearGradient id="paint80_linear_175_188" x1="232.5" y1="606" x2="232.5" y2="904.818" gradientUnits="userSpaceOnUse">
<stop stop-color="#020CFB"/>
<stop offset="0.479167" stop-color="#819502" stop-opacity="0.520833"/>
<stop offset="1" stop-color="#01F027" stop-opacity="0"/>
</linearGradient>
<linearGradient id="paint81_linear_175_188" x1="232.5" y1="606" x2="232.5" y2="904.818" gradientUnits="userSpaceOnUse">
<stop stop-color="#020CFB"/>
<stop offset="0.479167" stop-color="#819502" stop-opacity="0.520833"/>
<stop offset="1" stop-color="#01F027" stop-opacity="0"/>
</linearGradient>
<linearGradient id="paint82_linear_175_188" x1="232.5" y1="606" x2="232.5" y2="904.818" gradientUnits="userSpaceOnUse">
<stop stop-color="#020CFB"/>
<stop offset="0.479167" stop-color="#819502" stop-opacity="0.520833"/>
<stop offset="1" stop-color="#01F027" stop-opacity="0"/>
</linearGradient>
<linearGradient id="paint83_linear_175_188" x1="232.5" y1="606" x2="232.5" y2="904.818" gradientUnits="userSpaceOnUse">
<stop stop-color="#020CFB"/>
<stop offset="0.479167" stop-color="#819502" stop-opacity="0.520833"/>
<stop offset="1" stop-color="#01F027" stop-opacity="0"/>
</linearGradient>
<linearGradient id="paint84_linear_175_188" x1="232.5" y1="606" x2="232.5" y2="904.818" gradientUnits="userSpaceOnUse">
<stop stop-color="#020CFB"/>
<stop offset="0.479167" stop-color="#819502" stop-opacity="0.520833"/>
<stop offset="1" stop-color="#01F027" stop-opacity="0"/>
</linearGradient>
<linearGradient id="paint85_linear_175_188" x1="232.5" y1="606" x2="232.5" y2="904.818" gradientUnits="userSpaceOnUse">
<stop stop-color="#020CFB"/>
<stop offset="0.479167" stop-color="#819502" stop-opacity="0.520833"/>
<stop offset="1" stop-color="#01F027" stop-opacity="0"/>
</linearGradient>
<linearGradient id="paint86_linear_175_188" x1="232.5" y1="606" x2="232.5" y2="904.818" gradientUnits="userSpaceOnUse">
<stop stop-color="#020CFB"/>
<stop offset="0.479167" stop-color="#819502" stop-opacity="0.520833"/>
<stop offset="1" stop-color="#01F027" stop-opacity="0"/>
</linearGradient>
<linearGradient id="paint87_linear_175_188" x1="232.5" y1="606" x2="232.5" y2="904.818" gradientUnits="userSpaceOnUse">
<stop stop-color="#020CFB"/>
<stop offset="0.479167" stop-color="#819502" stop-opacity="0.520833"/>
<stop offset="1" stop-color="#01F027" stop-opacity="0"/>
</linearGradient>
<linearGradient id="paint88_linear_175_188" x1="232.5" y1="606" x2="232.5" y2="904.818" gradientUnits="userSpaceOnUse">
<stop stop-color="#020CFB"/>
<stop offset="0.479167" stop-color="#819502" stop-opacity="0.520833"/>
<stop offset="1" stop-color="#01F027" stop-opacity="0"/>
</linearGradient>
<linearGradient id="paint89_linear_175_188" x1="232.5" y1="606" x2="232.5" y2="904.818" gradientUnits="userSpaceOnUse">
<stop stop-color="#020CFB"/>
<stop offset="0.479167" stop-color="#819502" stop-opacity="0.520833"/>
<stop offset="1" stop-color="#01F027" stop-opacity="0"/>
</linearGradient>
<linearGradient id="paint90_linear_175_188" x1="232.5" y1="606" x2="232.5" y2="904.818" gradientUnits="userSpaceOnUse">
<stop stop-color="#020CFB"/>
<stop offset="0.479167" stop-color="#819502" stop-opacity="0.520833"/>
<stop offset="1" stop-color="#01F027" stop-opacity="0"/>
</linearGradient>
<linearGradient id="paint91_linear_175_188" x1="232.5" y1="606" x2="232.5" y2="904.818" gradientUnits="userSpaceOnUse">
<stop stop-color="#020CFB"/>
<stop offset="0.479167" stop-color="#819502" stop-opacity="0.520833"/>
<stop offset="1" stop-color="#01F027" stop-opacity="0"/>
</linearGradient>
<linearGradient id="paint92_linear_175_188" x1="232.5" y1="606" x2="232.5" y2="904.818" gradientUnits="userSpaceOnUse">
<stop stop-color="#020CFB"/>
<stop offset="0.479167" stop-color="#819502" stop-opacity="0.520833"/>
<stop offset="1" stop-color="#01F027" stop-opacity="0"/>
</linearGradient>
<linearGradient id="paint93_linear_175_188" x1="232.5" y1="606" x2="232.5" y2="904.818" gradientUnits="userSpaceOnUse">
<stop stop-color="#020CFB"/>
<stop offset="0.479167" stop-color="#819502" stop-opacity="0.520833"/>
<stop offset="1" stop-color="#01F027" stop-opacity="0"/>
</linearGradient>
</defs>
</svg>
